<!-- <svg width="200" height="40" viewBox="0 0 200 40" fill="none" xmlns="http://www.w3.org/2000/svg">
<g clip-path="url(#clip0_7_29862)">
<path fill-rule="evenodd" clip-rule="evenodd" d="M20 40C31.0458 40 40 31.0457 40 20C40 8.95431 31.0458 0 20 0C8.9543 0 0 8.95431 0 20C0 31.0457 8.9543 40 20 40ZM23.2593 12.2988C24.0082 12.8505 24.4321 13.6245 24.5309 14.6209H29.6543C29.6296 13.114 29.2263 11.7883 28.4444 10.6437C27.6626 9.49913 26.5679 8.6057 25.1605 7.96342C23.7613 7.32114 22.1235 7 20.2469 7C18.4033 7 16.7572 7.32114 15.3086 7.96342C13.8601 8.6057 12.7202 9.49913 11.8889 10.6437C11.0658 11.7883 10.6584 13.1264 10.6667 14.658C10.6584 16.5272 11.2716 18.0135 12.5062 19.1169C13.7407 20.2203 15.4239 21.0314 17.5556 21.5501L20.3086 22.2418C21.2305 22.4641 22.0082 22.7112 22.642 22.9829C23.284 23.2546 23.7695 23.584 24.0988 23.971C24.4362 24.358 24.6049 24.8356 24.6049 25.4038C24.6049 26.0131 24.4198 26.5525 24.0494 27.0219C23.679 27.4912 23.1564 27.8576 22.4815 28.1211C21.8148 28.3846 21.0288 28.5164 20.1235 28.5164C19.2016 28.5164 18.3745 28.3764 17.642 28.0964C16.9177 27.8082 16.3374 27.3842 15.9012 26.8242C15.4733 26.2561 15.2305 25.5479 15.1728 24.6998H10C10.0412 26.5196 10.4815 28.047 11.321 29.2822C12.1687 30.5091 13.3457 31.4355 14.8519 32.0613C16.3663 32.6871 18.144 33 20.1852 33C22.2428 33 24 32.6912 25.4568 32.0736C26.9218 31.4478 28.0412 30.5709 28.8148 29.4428C29.5967 28.3064 29.9918 26.9642 30 25.4162C29.9918 24.3622 29.7984 23.4276 29.4198 22.6124C29.0494 21.7971 28.5267 21.089 27.8519 20.4879C27.177 19.8868 26.3786 19.3804 25.4568 18.9686C24.535 18.5569 23.5226 18.2276 22.4198 17.9805L20.1481 17.4371C19.5967 17.3135 19.0782 17.1653 18.5926 16.9924C18.107 16.8112 17.679 16.6013 17.3086 16.3625C16.9383 16.1154 16.6461 15.8231 16.4321 15.4855C16.2263 15.1479 16.1317 14.7527 16.1481 14.2998C16.1481 13.7563 16.3045 13.2705 16.6173 12.8423C16.9383 12.4141 17.3992 12.0806 18 11.8418C18.6008 11.5948 19.3374 11.4713 20.2099 11.4713C21.4938 11.4713 22.5103 11.7471 23.2593 12.2988Z" fill="#F1F2FF"/>
<path d="M55.7046 27.6935C54.301 27.6935 53.1133 27.5073 52.1415 27.1348C51.1852 26.7468 50.4062 26.2425 49.8047 25.6217C49.2185 25.001 48.7789 24.3259 48.4859 23.5965C48.2082 22.8516 48.0463 22.1222 48 21.4083H51.6094C51.6402 21.967 51.8099 22.5024 52.1184 23.0145C52.4269 23.5267 52.8896 23.9457 53.5066 24.2716C54.1236 24.5975 54.8948 24.7604 55.8203 24.7604C56.8229 24.7604 57.5633 24.5587 58.0414 24.1552C58.535 23.7362 58.7818 23.193 58.7818 22.5257C58.7818 21.8894 58.5659 21.3695 58.134 20.9661C57.7175 20.5626 57.1622 20.2444 56.4681 20.0116L53.8536 19.1271C53.0207 18.8477 52.2186 18.5063 51.4474 18.1028C50.6916 17.6838 50.0669 17.1406 49.5733 16.4733C49.0797 15.7905 48.8329 14.9214 48.8329 13.8661C48.8329 12.7798 49.1029 11.8642 49.6427 11.1193C50.198 10.3744 50.9538 9.80795 51.9101 9.41998C52.8819 9.03201 53.9925 8.83802 55.2419 8.83802C56.846 8.83802 58.1108 9.1096 59.0363 9.65276C59.9618 10.1959 60.6328 10.8865 61.0492 11.7245C61.4811 12.547 61.7433 13.4083 61.8359 14.3084H58.2265C58.1957 13.8739 58.0723 13.4627 57.8563 13.0747C57.6558 12.6712 57.3319 12.3453 56.8846 12.097C56.4373 11.8487 55.8357 11.7245 55.0799 11.7245C54.2315 11.7245 53.5991 11.903 53.1827 12.2599C52.7816 12.6169 52.5811 13.0669 52.5811 13.6101C52.5811 14.1998 52.7893 14.6731 53.2058 15.0301C53.6377 15.387 54.2084 15.6896 54.9179 15.9379L57.5324 16.8225C58.3808 17.1018 59.1829 17.451 59.9387 17.87C60.6945 18.289 61.3115 18.8477 61.7896 19.5461C62.2832 20.2289 62.53 21.129 62.53 22.2464C62.53 23.9379 61.9284 25.2726 60.7253 26.2502C59.5376 27.2124 57.864 27.6935 55.7046 27.6935Z" fill="#F1F2FF"/>
<path d="M67.2409 27.3443C66.8861 26.9253 66.6008 26.4209 66.3848 25.8312C66.1843 25.2415 66.084 24.3569 66.084 23.1775V16.031H64.1868V13.3773H66.1303V9.88555H69.8091V13.3773H72.0534V16.031H69.8091V22.7818C69.8091 24.0078 69.9479 24.9467 70.2256 25.5984C70.5032 26.2502 70.8348 26.7856 71.2204 27.2047V27.3443H67.2409Z" fill="#F1F2FF"/>
<path d="M78.9391 27.6935C77.3967 27.6935 76.2321 27.2047 75.4455 26.227C74.6588 25.2493 74.2655 23.9224 74.2655 22.2464V13.3773H78.0137V21.6178C78.0137 22.5645 78.1833 23.3016 78.5227 23.8293C78.862 24.3569 79.4096 24.6208 80.1654 24.6208C81.0755 24.6208 81.7773 24.2638 82.2709 23.55C82.7645 22.8361 83.0112 21.9593 83.0112 20.9195V13.3773H86.7594V27.3443H83.3814V25.2493H82.8262C82.5948 25.9476 82.1706 26.5296 81.5536 26.9951C80.9366 27.4607 80.0651 27.6935 78.9391 27.6935Z" fill="#F1F2FF"/>
<path d="M94.8039 27.6237C93.539 27.6237 92.4979 27.3133 91.6804 26.6925C90.8629 26.0563 90.2536 25.1872 89.8525 24.0854C89.4515 22.9835 89.251 21.7342 89.251 20.3375C89.251 18.8943 89.4515 17.6295 89.8525 16.5432C90.269 15.4568 90.886 14.6111 91.7035 14.0058C92.5364 13.4006 93.5699 13.098 94.8039 13.098C95.7139 13.098 96.4543 13.2609 97.025 13.5868C97.6111 13.9127 98.0739 14.355 98.4132 14.9137H98.9685V8.72163H102.717V27.3443H99.2461V25.5286H98.6909C98.3669 26.1183 97.8965 26.6149 97.2795 27.0184C96.6625 27.4219 95.8373 27.6237 94.8039 27.6237ZM95.8682 24.9699C96.8091 24.9699 97.5571 24.5587 98.1124 23.7362C98.6831 22.8982 98.9685 21.773 98.9685 20.3608C98.9685 18.9331 98.6831 17.808 98.1124 16.9855C97.5571 16.1629 96.8091 15.7517 95.8682 15.7517C95.0198 15.7517 94.3488 16.1397 93.8552 16.9156C93.3771 17.676 93.138 18.8244 93.138 20.3608C93.138 21.8972 93.3771 23.0533 93.8552 23.8293C94.3488 24.5897 95.0198 24.9699 95.8682 24.9699Z" fill="#F1F2FF"/>
<path d="M107.002 32V31.9534C107.388 31.3172 107.805 30.58 108.252 29.742C108.699 28.904 109.092 28.1048 109.432 27.3443L104.666 13.517V13.3773H108.368L109.802 17.5674C110.033 18.2347 110.265 18.9486 110.496 19.709C110.727 20.4694 110.959 21.4316 111.19 22.5955H111.746C111.977 21.4316 112.208 20.4694 112.44 19.709C112.671 18.9486 112.902 18.2347 113.134 17.5674L114.568 13.3773H118.085V13.517L113.828 25.4355C113.273 27.0029 112.733 28.3375 112.208 29.4394C111.699 30.5567 111.267 31.4103 110.913 32H107.002Z" fill="#F1F2FF"/>
<path d="M120.075 27.3443V9.1872H126.785L132.384 24.2716H132.939V9.1872H136.456V27.3443H129.7L124.124 12.2599H123.592V27.3443H120.075Z" fill="#F1F2FF"/>
<path d="M145.853 27.6935C143.555 27.6935 141.835 27.0339 140.693 25.7148C139.567 24.3802 139.004 22.5955 139.004 20.3608C139.004 18.1261 139.567 16.3492 140.693 15.0301C141.835 13.6954 143.555 13.0281 145.853 13.0281C148.151 13.0281 149.863 13.6954 150.989 15.0301C152.131 16.3492 152.702 18.1261 152.702 20.3608C152.702 22.5955 152.131 24.3802 150.989 25.7148C149.863 27.0339 148.151 27.6935 145.853 27.6935ZM145.853 25.1794C146.871 25.1794 147.619 24.7759 148.097 23.969C148.575 23.162 148.814 21.9515 148.814 20.3375C148.814 18.7391 148.575 17.5441 148.097 16.7527C147.619 15.9457 146.871 15.5422 145.853 15.5422C144.835 15.5422 144.087 15.9457 143.609 16.7527C143.131 17.5441 142.891 18.7391 142.891 20.3375C142.891 21.9515 143.131 23.162 143.609 23.969C144.087 24.7759 144.835 25.1794 145.853 25.1794Z" fill="#F1F2FF"/>
<path d="M157.231 27.3443C156.876 26.9253 156.591 26.4209 156.375 25.8312C156.174 25.2415 156.074 24.3569 156.074 23.1775V16.031H154.177V13.3773H156.12V9.88555H159.799V13.3773H162.043V16.031H159.799V22.7818C159.799 24.0078 159.938 24.9467 160.216 25.5984C160.493 26.2502 160.825 26.7856 161.21 27.2047V27.3443H157.231Z" fill="#F1F2FF"/>
<path d="M164.441 27.3443V13.3773H168.189V27.3443H164.441ZM166.315 11.7711C165.651 11.7711 165.15 11.6004 164.811 11.259C164.471 10.902 164.302 10.4442 164.302 9.88555C164.302 9.32687 164.471 8.87682 164.811 8.5354C165.15 8.17847 165.651 8 166.315 8C166.978 8 167.479 8.17847 167.819 8.5354C168.158 8.87682 168.328 9.32687 168.328 9.88555C168.328 10.4442 168.158 10.902 167.819 11.259C167.479 11.6004 166.978 11.7711 166.315 11.7711Z" fill="#F1F2FF"/>
<path d="M177.549 27.6935C175.25 27.6935 173.531 27.0339 172.389 25.7148C171.263 24.3802 170.7 22.5955 170.7 20.3608C170.7 18.1261 171.263 16.3492 172.389 15.0301C173.531 13.6954 175.25 13.0281 177.549 13.0281C179.847 13.0281 181.559 13.6954 182.685 15.0301C183.827 16.3492 184.397 18.1261 184.397 20.3608C184.397 22.5955 183.827 24.3802 182.685 25.7148C181.559 27.0339 179.847 27.6935 177.549 27.6935ZM177.549 25.1794C178.567 25.1794 179.315 24.7759 179.793 23.969C180.271 23.162 180.51 21.9515 180.51 20.3375C180.51 18.7391 180.271 17.5441 179.793 16.7527C179.315 15.9457 178.567 15.5422 177.549 15.5422C176.531 15.5422 175.783 15.9457 175.304 16.7527C174.826 17.5441 174.587 18.7391 174.587 20.3375C174.587 21.9515 174.826 23.162 175.304 23.969C175.783 24.7759 176.531 25.1794 177.549 25.1794Z" fill="#F1F2FF"/>
<path d="M186.891 27.3443V13.3773H190.361V15.4724H190.916C191.194 14.774 191.618 14.192 192.189 13.7265C192.775 13.2609 193.631 13.0281 194.757 13.0281C196.3 13.0281 197.457 13.517 198.228 14.4947C198.999 15.4724 199.385 16.7992 199.385 18.4753V27.3443H195.636V19.1038C195.636 18.1416 195.467 17.4045 195.127 16.8923C194.788 16.3647 194.233 16.1009 193.462 16.1009C192.567 16.1009 191.873 16.4578 191.379 17.1717C190.886 17.87 190.639 18.7468 190.639 19.8021V27.3443H186.891Z" fill="#F1F2FF"/>
</g>
<defs>
<clipPath id="clip0_7_29862">
<rect width="200" height="40" fill="white"/>
</clipPath>
</defs>
</svg> -->


<svg version="1.1" id="Layer_1" xmlns="http://www.w3.org/2000/svg" xmlns:xlink="http://www.w3.org/1999/xlink" x="0px" y="0px"
	 width="100%" viewBox="0 0 509 339" enable-background="new 0 0 509 339" xml:space="preserve">
<path fill="#FEFEFE" opacity="1.000000" stroke="none" 
	d="
M510.000000,300.000000 
	C510.000000,313.323425 510.000000,326.646851 510.000000,339.954224 
	C340.333313,339.954224 170.666656,339.954224 1.000000,339.954224 
	C1.000000,326.918091 1.000000,313.927704 1.468657,300.468658 
	C90.642593,300.000000 179.347961,300.048370 268.053009,299.900574 
	C274.568207,299.889709 280.576935,299.543549 283.171021,307.434753 
	C282.121094,310.539337 281.123688,313.280518 279.882690,316.286133 
	C278.353027,320.760925 276.975281,324.947449 275.866241,329.203949 
	C275.668488,329.962891 276.585114,331.012146 276.987213,331.927368 
	C277.716705,331.229797 278.700165,330.659607 279.126251,329.809906 
	C280.231506,327.605774 281.091461,325.278595 282.450867,323.000275 
	C284.636963,322.408813 286.421539,321.817627 288.206085,321.226440 
	C288.033813,320.821533 287.861542,320.416626 287.689240,320.011719 
	C286.352600,319.453644 285.015961,318.895569 283.719421,318.002991 
	C285.125671,315.096954 286.491791,312.525421 288.258789,309.966675 
	C291.002625,308.464294 294.756165,307.398376 295.410095,305.345215 
	C297.027191,300.267822 300.173798,299.934387 304.520691,299.939819 
	C373.013733,300.025543 441.506866,300.000000 510.000000,300.000000 
M277.724762,337.117615 
	C277.532471,336.574158 277.340179,336.030731 277.147888,335.487305 
	C276.869080,335.614563 276.590271,335.741821 276.311462,335.869080 
	C276.637421,336.428436 276.963409,336.987762 277.724762,337.117615 
z"/>
<path fill="#FDFDFD" opacity="1.000000" stroke="none" 
	d="
M510.000000,299.531342 
	C441.506866,300.000000 373.013733,300.025543 304.520691,299.939819 
	C300.173798,299.934387 297.027191,300.267822 295.410095,305.345215 
	C294.756165,307.398376 291.002625,308.464294 288.321991,309.604065 
	C289.354340,304.714172 290.710358,300.195374 292.112183,295.690796 
	C292.284454,295.137299 292.619171,294.581818 293.018646,294.159821 
	C296.775421,290.191406 298.162781,282.212280 296.411194,278.380951 
	C292.227692,287.482330 287.725586,297.276855 283.223480,307.071350 
	C280.576935,299.543549 274.568207,299.889709 268.053009,299.900574 
	C179.347961,300.048370 90.642593,300.000000 1.468657,300.000000 
	C1.000000,288.979095 1.000000,277.958221 1.468657,266.468658 
	C94.762032,266.000000 187.586746,266.000061 280.411469,265.999603 
	C281.744659,265.999603 283.259979,266.392792 284.365356,265.889191 
	C285.775391,265.246826 286.854187,263.877380 288.372437,262.912964 
	C289.136292,263.624451 289.603394,264.244324 290.055725,265.259094 
	C290.692474,269.265015 292.648010,267.858765 295.408569,267.457214 
	C293.652496,266.168457 292.786987,265.533264 292.090332,264.607574 
	C290.502167,260.877472 288.745178,257.437897 287.368652,254.004150 
	C292.802124,257.275482 298.427826,255.985611 303.871735,255.987167 
	C372.581146,256.006683 441.290588,256.000000 510.000000,256.000000 
	C510.000000,270.354218 510.000000,284.708466 510.000000,299.531342 
M295.471924,269.607941 
	C295.181366,269.877594 294.890778,270.147247 294.600220,270.416901 
	C294.704224,270.519714 294.888611,270.720612 294.900452,270.710938 
	C295.193237,270.471069 295.467773,270.208893 295.471924,269.607941 
z"/>
<path fill="#D1D1D1" opacity="1.000000" stroke="none" 
	d="
M1.000000,26.000000 
	C1.000000,17.673193 1.000000,9.346388 1.000000,1.040673 
	C170.666672,1.040673 340.333344,1.040673 510.000000,1.040673 
	C510.000000,9.075110 510.000000,17.068876 509.531342,25.531321 
	C339.708466,26.000000 170.354233,26.000000 1.000000,26.000000 
z"/>
<path fill="#FAFAFA" opacity="1.000000" stroke="none" 
	d="
M288.075745,262.821289 
	C286.854187,263.877380 285.775391,265.246826 284.365356,265.889191 
	C283.259979,266.392792 281.744659,265.999603 280.411469,265.999603 
	C187.586746,266.000061 94.762032,266.000000 1.468657,266.000000 
	C1.000000,249.979111 1.000000,233.958206 1.468657,217.468658 
	C25.638269,217.000000 49.339222,217.000000 73.040176,217.000000 
	C88.756447,217.000000 104.472717,216.999939 120.188988,217.000000 
	C129.584045,217.000046 138.979095,217.003098 148.374146,216.999695 
	C161.701187,216.994858 175.029907,217.094299 188.353912,216.889313 
	C191.148666,216.846313 194.615463,216.741577 195.468246,212.723877 
	C210.114456,222.412216 225.692703,228.405411 243.434280,229.697662 
	C248.909348,229.887619 253.933929,229.940079 258.948975,230.127380 
	C258.939423,230.262238 259.156067,230.423981 259.161346,230.499222 
	C259.166626,230.574463 259.212830,230.720291 259.151825,231.047485 
	C259.417267,232.879990 259.743744,234.385284 260.034058,236.127899 
	C259.997955,236.365204 259.993622,236.845276 259.620056,237.059052 
	C259.141113,239.616608 259.035706,241.960403 258.966705,244.606995 
	C260.198975,245.951889 261.394897,246.993988 262.895569,248.345581 
	C266.486481,248.345139 269.772614,248.035156 273.347290,247.922546 
	C275.773712,249.465088 277.911530,250.810257 280.178772,252.473160 
	C281.515625,254.407028 282.700592,256.040619 283.936554,257.634674 
	C285.291748,259.382538 286.694000,261.093964 288.075745,262.821289 
z"/>
<path fill="#D5D5D5" opacity="1.000000" stroke="none" 
	d="
M1.000000,26.468649 
	C170.354233,26.000000 339.708466,26.000000 509.531342,26.000000 
	C510.000000,34.020901 510.000000,42.041798 509.531342,50.531349 
	C448.651459,51.000000 388.240265,51.014828 327.829071,50.969658 
	C323.370575,50.966324 318.901917,50.236988 314.457581,50.395206 
	C311.269684,50.508690 308.114471,51.540459 304.657440,52.005398 
	C302.890045,50.970089 301.409912,50.091942 299.586487,49.089176 
	C294.502441,46.639141 289.761597,44.313721 284.768677,41.728302 
	C280.039276,40.200901 275.562042,38.933498 270.773132,37.454506 
	C265.977264,36.630035 261.493042,36.017155 256.558411,35.283333 
	C251.407196,35.364357 246.706345,35.566315 241.628006,35.728836 
	C239.161224,35.932442 237.071930,36.175480 234.603699,36.410126 
	C223.480545,40.233887 212.736328,44.066044 201.742676,47.643291 
	C200.685455,47.308636 199.657791,46.867298 199.103409,47.204372 
	C192.678116,51.111027 185.509079,50.962502 178.434662,50.969021 
	C119.289818,51.023533 60.144897,51.000000 1.000000,51.000000 
	C1.000000,42.979099 1.000000,34.958199 1.000000,26.468649 
z"/>
<path fill="#F8F8F8" opacity="1.000000" stroke="none" 
	d="
M510.000000,255.531342 
	C441.290588,256.000000 372.581146,256.006683 303.871735,255.987167 
	C298.427826,255.985611 292.802124,257.275482 287.147308,253.758148 
	C284.726959,252.686325 282.908417,251.866318 280.975586,250.709610 
	C279.229401,248.199020 277.597473,246.025146 276.250488,243.432083 
	C278.023712,238.304749 277.115204,234.328171 272.924957,231.399323 
	C269.931091,229.306702 270.305176,227.931198 273.744263,227.049561 
	C274.850433,226.765991 275.913361,226.313736 277.381531,225.959686 
	C282.175201,224.271103 286.583435,222.561493 291.338806,220.816803 
	C297.819702,216.864288 303.953491,212.946869 310.300323,209.021057 
	C310.513397,209.012695 310.938171,208.974075 311.240540,209.185562 
	C314.444122,210.264694 317.340698,211.867874 320.247314,211.886322 
	C349.624268,212.072769 379.002899,212.000000 408.381042,212.000000 
	C442.254028,212.000015 476.127014,212.000000 510.000000,212.000000 
	C510.000000,226.354233 510.000000,240.708450 510.000000,255.531342 
z"/>
<path fill="#F4F4F4" opacity="1.000000" stroke="none" 
	d="
M195.138931,212.591843 
	C194.615463,216.741577 191.148666,216.846313 188.353912,216.889313 
	C175.029907,217.094299 161.701187,216.994858 148.374146,216.999695 
	C138.979095,217.003098 129.584045,217.000046 120.188988,217.000000 
	C104.472717,216.999939 88.756447,217.000000 73.040176,217.000000 
	C49.339222,217.000000 25.638269,217.000000 1.468657,217.000000 
	C1.000000,204.312439 1.000000,191.624878 1.468657,178.468658 
	C52.599197,177.999985 103.261246,177.945541 153.922653,178.098953 
	C158.166229,178.111801 160.918579,176.945450 162.692780,173.376129 
	C170.251022,189.472855 181.298843,202.189163 195.138931,212.591843 
z"/>
<path fill="#F3F3F3" opacity="1.000000" stroke="none" 
	d="
M510.000000,211.531342 
	C476.127014,212.000000 442.254028,212.000015 408.381042,212.000000 
	C379.002899,212.000000 349.624268,212.072769 320.247314,211.886322 
	C317.340698,211.867874 314.444122,210.264694 311.400757,208.890717 
	C316.876892,202.326004 322.495178,196.267639 328.404022,190.026505 
	C332.090118,184.139069 335.485657,178.434372 338.965668,173.118179 
	C339.821747,173.993576 340.579468,174.874023 341.367218,174.901779 
	C345.612488,175.051270 349.865204,174.998413 354.115356,174.998581 
	C406.076904,175.000763 458.038452,175.000000 510.000000,175.000000 
	C510.000000,187.020889 510.000000,199.041794 510.000000,211.531342 
z"/>
<path fill="#DBDBDB" opacity="1.000000" stroke="none" 
	d="
M304.944672,52.162560 
	C308.114471,51.540459 311.269684,50.508690 314.457581,50.395206 
	C318.901917,50.236988 323.370575,50.966324 327.829071,50.969658 
	C388.240265,51.014828 448.651459,51.000000 509.531342,51.000000 
	C510.000000,61.020893 510.000000,71.041786 509.554596,81.531342 
	C501.168304,81.666664 493.228363,81.075264 485.286346,81.045753 
	C454.846558,80.932663 424.406036,80.970596 393.965973,81.042465 
	C390.682434,81.050217 387.395325,81.961662 384.118378,81.910263 
	C373.409027,81.742302 362.704987,81.256721 351.995941,81.039925 
	C348.735748,80.973923 345.449005,81.237038 342.205811,81.617233 
	C339.418579,81.943985 336.676086,82.652443 333.648560,82.973679 
	C329.569489,77.723648 325.755676,72.692062 321.776672,67.341766 
	C317.919556,63.581879 314.227600,60.140697 310.283936,56.473289 
	C308.336365,54.885563 306.640533,53.524059 304.944672,52.162560 
z"/>
<path fill="#DBDBDB" opacity="1.000000" stroke="none" 
	d="
M1.000000,51.468658 
	C60.144897,51.000000 119.289818,51.023533 178.434662,50.969021 
	C185.509079,50.962502 192.678116,51.111027 199.103409,47.204372 
	C199.657791,46.867298 200.685455,47.308636 201.460190,47.867462 
	C191.073349,53.730297 183.040314,61.755814 175.594360,70.955040 
	C173.234222,73.820450 171.166779,76.513649 168.951233,79.011215 
	C168.527008,79.278717 168.250900,79.741867 167.904480,80.450851 
	C167.570938,81.129745 167.307724,81.562798 166.596313,81.995392 
	C111.098732,82.329964 56.049366,82.664986 1.000000,83.000000 
	C1.000000,72.645775 1.000000,62.291546 1.000000,51.468658 
z"/>
<path fill="#E2E2E2" opacity="1.000000" stroke="none" 
	d="
M1.000000,83.468658 
	C56.049366,82.664986 111.098732,82.329964 166.563354,82.321411 
	C166.647781,83.426262 166.316940,84.204659 165.670517,85.151871 
	C161.875839,95.554276 158.396759,105.787872 154.680801,116.202209 
	C154.315262,116.952293 154.186600,117.521622 154.054352,118.067291 
	C154.050781,118.043625 154.091446,118.072388 153.663162,118.059311 
	C150.114990,118.364059 146.995438,118.954918 143.875168,118.958778 
	C96.250168,119.017677 48.625072,118.999893 1.000000,119.000000 
	C1.000000,107.312439 1.000000,95.624878 1.000000,83.468658 
z"/>
<path fill="#E8E8E8" opacity="1.000000" stroke="none" 
	d="
M510.000000,112.000000 
	C510.000000,122.354225 510.000000,132.708450 509.531433,143.531342 
	C499.465790,143.666672 489.869537,143.109024 480.271332,143.072250 
	C472.836273,143.043762 465.401459,143.843430 457.961670,143.957886 
	C447.247131,144.122742 436.526428,144.124023 425.811554,143.969879 
	C411.060822,143.757675 396.313995,143.148529 381.563660,143.073227 
	C372.800018,143.028488 364.034882,143.806137 355.266022,143.952713 
	C352.361084,144.001266 349.442505,143.234283 346.616821,142.389603 
	C345.832214,130.628769 344.960938,119.318512 344.453613,108.055389 
	C346.504028,109.390076 348.098663,111.611763 349.894440,111.788414 
	C355.090698,112.299553 360.371948,112.122467 365.612244,111.964371 
	C371.573303,111.784523 377.528839,111.017014 383.481964,111.068283 
	C394.606354,111.164093 405.728607,111.980499 416.849243,111.931160 
	C436.717438,111.843040 456.582947,111.158562 476.451111,111.070961 
	C487.632507,111.021660 498.816925,111.667381 510.000000,112.000000 
z"/>
<path fill="#EEEEEE" opacity="1.000000" stroke="none" 
	d="
M346.530182,142.840179 
	C349.442505,143.234283 352.361084,144.001266 355.266022,143.952713 
	C364.034882,143.806137 372.800018,143.028488 381.563660,143.073227 
	C396.313995,143.148529 411.060822,143.757675 425.811554,143.969879 
	C436.526428,144.124023 447.247131,144.122742 457.961670,143.957886 
	C465.401459,143.843430 472.836273,143.043762 480.271332,143.072250 
	C489.869537,143.109024 499.465790,143.666672 509.531433,144.000000 
	C510.000000,154.020889 510.000000,164.041794 510.000000,174.531342 
	C458.038452,175.000000 406.076904,175.000763 354.115356,174.998581 
	C349.865204,174.998413 345.612488,175.051270 341.367218,174.901779 
	C340.579468,174.874023 339.821747,173.993576 338.977722,172.863449 
	C339.122223,171.770248 339.339142,171.320297 339.985352,170.852905 
	C340.891083,169.355774 341.367554,167.876083 341.731262,166.065369 
	C341.714600,164.817627 341.810699,163.900925 342.127502,162.796143 
	C342.499481,162.067215 342.650757,161.526352 342.915894,160.599731 
	C343.282349,159.173569 343.534943,158.133148 343.930725,156.786041 
	C344.892700,151.932953 345.711426,147.386566 346.530182,142.840179 
z"/>
<path fill="#E1E1E1" opacity="1.000000" stroke="none" 
	d="
M510.000000,111.531342 
	C498.816925,111.667381 487.632507,111.021660 476.451111,111.070961 
	C456.582947,111.158562 436.717438,111.843040 416.849243,111.931160 
	C405.728607,111.980499 394.606354,111.164093 383.481964,111.068283 
	C377.528839,111.017014 371.573303,111.784523 365.612244,111.964371 
	C360.371948,112.122467 355.090698,112.299553 349.894440,111.788414 
	C348.098663,111.611763 346.504028,109.390076 344.315979,107.712334 
	C342.907471,104.873550 342.000549,102.424957 341.055328,99.603821 
	C338.774811,94.443520 336.532562,89.655754 334.225708,84.588379 
	C334.078644,83.936554 333.996246,83.564331 333.913818,83.192116 
	C336.676086,82.652443 339.418579,81.943985 342.205811,81.617233 
	C345.449005,81.237038 348.735748,80.973923 351.995941,81.039925 
	C362.704987,81.256721 373.409027,81.742302 384.118378,81.910263 
	C387.395325,81.961662 390.682434,81.050217 393.965973,81.042465 
	C424.406036,80.970596 454.846558,80.932663 485.286346,81.045753 
	C493.228363,81.075264 501.168304,81.666664 509.554596,82.000000 
	C510.000000,91.687561 510.000000,101.375122 510.000000,111.531342 
z"/>
<path fill="#E9E9E9" opacity="1.000000" stroke="none" 
	d="
M1.000000,119.468658 
	C48.625072,118.999893 96.250168,119.017677 143.875168,118.958778 
	C146.995438,118.954918 150.114990,118.364059 153.700104,118.522987 
	C154.081665,123.444550 153.811676,127.895599 153.960327,132.332626 
	C154.157791,138.227509 154.681732,144.111465 154.592651,149.998810 
	C103.079926,149.998337 52.039963,149.999161 1.000000,150.000000 
	C1.000000,139.979111 1.000000,129.958206 1.000000,119.468658 
z"/>
<path fill="#EEEEEE" opacity="1.000000" stroke="none" 
	d="
M1.000000,150.468658 
	C52.039963,149.999161 103.079926,149.998337 154.725327,150.308990 
	C157.714066,158.101303 160.097366,165.582092 162.480667,173.062897 
	C160.918579,176.945450 158.166229,178.111801 153.922653,178.098953 
	C103.261246,177.945541 52.599197,177.999985 1.468657,178.000000 
	C1.000000,168.979111 1.000000,159.958206 1.000000,150.468658 
z"/>
<path fill="#1BB77F" opacity="1.000000" stroke="none" 
	d="
M283.171021,307.434753 
	C287.725586,297.276855 292.227692,287.482330 296.411194,278.380951 
	C298.162781,282.212280 296.775421,290.191406 293.018646,294.159821 
	C292.619171,294.581818 292.284454,295.137299 292.112183,295.690796 
	C290.710358,300.195374 289.354340,304.714172 287.921143,309.591278 
	C286.491791,312.525421 285.125671,315.096954 283.449615,318.161255 
	C282.990112,319.042236 282.840515,319.430481 282.499939,319.555969 
	C281.581390,318.202728 280.853851,317.112213 280.126282,316.021698 
	C281.123688,313.280518 282.121094,310.539337 283.171021,307.434753 
z"/>
<path fill="#D1D1D1" opacity="1.000000" stroke="none" 
	d="
M279.882690,316.286133 
	C280.853851,317.112213 281.581390,318.202728 282.511047,319.880859 
	C282.491913,321.312469 282.270630,322.156525 282.049316,323.000549 
	C281.091461,325.278595 280.231506,327.605774 279.126251,329.809906 
	C278.700165,330.659607 277.716705,331.229797 276.987213,331.927368 
	C276.585114,331.012146 275.668488,329.962891 275.866241,329.203949 
	C276.975281,324.947449 278.353027,320.760925 279.882690,316.286133 
z"/>
<path fill="#FDFDFD" opacity="1.000000" stroke="none" 
	d="
M282.450867,323.000275 
	C282.270630,322.156525 282.491913,321.312469 282.702057,320.143585 
	C282.840515,319.430481 282.990112,319.042236 283.409515,318.495728 
	C285.015961,318.895569 286.352600,319.453644 287.689240,320.011719 
	C287.861542,320.416626 288.033813,320.821533 288.206085,321.226440 
	C286.421539,321.817627 284.636963,322.408813 282.450867,323.000275 
z"/>
<path fill="#FDFDFD" opacity="1.000000" stroke="none" 
	d="
M277.507080,337.332367 
	C276.963409,336.987762 276.637421,336.428436 276.311462,335.869080 
	C276.590271,335.741821 276.869080,335.614563 277.147888,335.487305 
	C277.340179,336.030731 277.532471,336.574158 277.507080,337.332367 
z"/>
<path fill="#D1D1D1" opacity="1.000000" stroke="none" 
	d="
M281.089874,251.046295 
	C282.908417,251.866318 284.726959,252.686325 286.766846,253.752335 
	C288.745178,257.437897 290.502167,260.877472 291.782227,264.619080 
	C290.893707,264.902130 290.482117,264.883148 290.070526,264.864166 
	C289.603394,264.244324 289.136292,263.624451 288.372437,262.912964 
	C286.694000,261.093964 285.291748,259.382538 283.936554,257.634674 
	C282.700592,256.040619 281.515625,254.407028 280.266174,252.217377 
	C280.512695,251.444672 280.801270,251.245483 281.089874,251.046295 
z"/>
<path fill="#FAFAFA" opacity="1.000000" stroke="none" 
	d="
M290.055725,265.259094 
	C290.482117,264.883148 290.893707,264.902130 291.613403,264.909607 
	C292.786987,265.533264 293.652496,266.168457 295.408569,267.457214 
	C292.648010,267.858765 290.692474,269.265015 290.055725,265.259094 
z"/>
<path fill="#FAFAFA" opacity="1.000000" stroke="none" 
	d="
M295.608734,269.779297 
	C295.467773,270.208893 295.193237,270.471069 294.900452,270.710938 
	C294.888611,270.720612 294.704224,270.519714 294.600220,270.416901 
	C294.890778,270.147247 295.181366,269.877594 295.608734,269.779297 
z"/>
<path fill="#DBB001" opacity="1.000000" stroke="none" 
	d="
M162.692780,173.376129 
	C160.097366,165.582092 157.714066,158.101303 155.198090,150.310303 
	C154.681732,144.111465 154.157791,138.227509 153.960327,132.332626 
	C153.811676,127.895599 154.081665,123.444550 154.128387,118.536064 
	C154.091446,118.072388 154.050781,118.043625 154.335052,117.927032 
	C154.718781,117.214111 154.818222,116.617783 154.917679,116.021461 
	C158.396759,105.787872 161.875839,95.554276 165.719116,85.539436 
	C166.720642,88.172180 167.357971,90.586174 167.995789,93.374336 
	C167.995911,94.496834 167.995590,95.245155 167.637222,96.058014 
	C166.696732,97.060158 165.893906,97.926994 165.566452,98.946518 
	C162.789719,107.591400 161.593964,116.272217 161.684189,125.544426 
	C161.819092,139.409164 165.385086,152.189468 171.365677,164.141800 
	C175.728943,172.861877 181.689636,181.055496 188.203598,188.354507 
	C195.618027,196.662521 205.078857,202.815521 215.859726,206.240952 
	C217.821274,206.864182 222.219696,205.741791 222.515488,204.631760 
	C223.641525,200.406067 223.664795,195.859283 223.815201,191.422836 
	C223.846893,190.487976 222.683655,189.505112 222.051559,188.557343 
	C221.417480,187.606583 220.038651,186.480820 220.229523,185.761795 
	C221.376526,181.440765 221.526932,177.214066 220.432709,173.082214 
	C227.164474,176.465225 233.581284,179.720840 240.168167,183.321350 
	C240.890961,185.005066 242.063385,186.427933 241.895050,187.668945 
	C240.859589,195.302063 241.389313,202.736908 243.346130,210.189407 
	C243.584534,211.097275 241.391098,213.044434 239.958603,213.889175 
	C238.153107,214.953888 235.971298,215.380463 233.534943,216.227234 
	C237.115326,221.279373 240.049576,225.419754 242.983810,229.560150 
	C225.692703,228.405411 210.114456,222.412216 195.468246,212.723877 
	C181.298843,202.189163 170.251022,189.472855 162.692780,173.376129 
z"/>
<path fill="#E5C100" opacity="1.000000" stroke="none" 
	d="
M276.996063,225.938675 
	C275.913361,226.313736 274.850433,226.765991 273.744263,227.049561 
	C270.305176,227.931198 269.931091,229.306702 272.924957,231.399323 
	C277.115204,234.328171 278.023712,238.304749 276.155518,243.499878 
	C275.514038,244.109695 275.276611,244.076965 275.064270,243.475189 
	C274.952087,236.105820 273.280884,234.092102 266.488434,232.727722 
	C265.542877,234.624146 264.597778,236.520599 264.194672,237.329468 
	C265.618073,241.138382 266.746094,244.156845 268.058685,247.669250 
	C265.814209,247.819824 264.202515,247.927948 262.590790,248.036072 
	C261.394897,246.993988 260.198975,245.951889 259.254639,244.288940 
	C259.668671,241.393799 259.831146,239.119537 259.993622,236.845276 
	C259.993622,236.845276 259.997955,236.365204 260.249817,235.876221 
	C265.384796,233.381866 265.667389,232.706940 262.334930,230.194977 
	C261.040222,230.290100 260.098145,230.357040 259.156067,230.423981 
	C259.156067,230.423981 258.939423,230.262238 258.994141,229.782455 
	C259.699158,225.084747 260.556610,220.886322 260.956116,216.644760 
	C261.754395,208.169495 262.304199,199.670761 262.951172,191.181305 
	C263.198181,187.940506 263.395386,184.715561 259.636658,183.430969 
	C265.317078,181.430206 270.620850,179.604828 276.070557,178.115509 
	C277.474701,180.490707 279.818695,182.538696 279.802155,184.567413 
	C279.732513,193.097122 278.819946,201.615799 278.490906,210.149094 
	C278.286438,215.452637 274.152344,220.370682 276.996063,225.938675 
z"/>
<path fill="#E0B801" opacity="1.000000" stroke="none" 
	d="
M259.260040,183.606339 
	C263.395386,184.715561 263.198181,187.940506 262.951172,191.181305 
	C262.304199,199.670761 261.754395,208.169495 260.956116,216.644760 
	C260.556610,220.886322 259.699158,225.084747 259.003662,229.647614 
	C253.933929,229.940079 248.909348,229.887619 243.434280,229.697662 
	C240.049576,225.419754 237.115326,221.279373 233.534943,216.227234 
	C235.971298,215.380463 238.153107,214.953888 239.958603,213.889175 
	C241.391098,213.044434 243.584534,211.097275 243.346130,210.189407 
	C241.389313,202.736908 240.859589,195.302063 241.895050,187.668945 
	C242.063385,186.427933 240.890961,185.005066 240.590759,183.312256 
	C246.982193,183.174286 253.121124,183.390305 259.260040,183.606339 
z"/>
<path fill="#CC9C01" opacity="1.000000" stroke="none" 
	d="
M262.895569,248.345581 
	C264.202515,247.927948 265.814209,247.819824 268.058685,247.669250 
	C266.746094,244.156845 265.618073,241.138382 264.194672,237.329468 
	C264.597778,236.520599 265.542877,234.624146 266.488434,232.727722 
	C273.280884,234.092102 274.952087,236.105820 274.773560,243.546814 
	C274.007538,245.262985 273.533142,246.494095 273.058716,247.725189 
	C269.772614,248.035156 266.486481,248.345139 262.895569,248.345581 
z"/>
<path fill="#1BB77F" opacity="1.000000" stroke="none" 
	d="
M273.347290,247.922546 
	C273.533142,246.494095 274.007538,245.262985 274.772644,243.960236 
	C275.276611,244.076965 275.514038,244.109695 275.870605,243.919037 
	C277.597473,246.025146 279.229401,248.199020 280.975586,250.709595 
	C280.801270,251.245483 280.512695,251.444672 280.136749,251.899658 
	C277.911530,250.810257 275.773712,249.465088 273.347290,247.922546 
z"/>
<path fill="#CC9C01" opacity="1.000000" stroke="none" 
	d="
M262.687561,230.166809 
	C265.667389,232.706940 265.384796,233.381866 260.285950,235.638916 
	C259.743744,234.385284 259.417267,232.879990 259.392822,231.166077 
	C260.692413,230.693924 261.689972,230.430359 262.687561,230.166809 
z"/>
<path fill="#CC9C01" opacity="1.000000" stroke="none" 
	d="
M259.620056,237.059052 
	C259.831146,239.119537 259.668671,241.393799 259.218262,243.986130 
	C259.035706,241.960403 259.141113,239.616608 259.620056,237.059052 
z"/>
<path fill="#271102" opacity="1.000000" stroke="none" 
	d="
M262.334930,230.194977 
	C261.689972,230.430359 260.692413,230.693924 259.453857,230.838882 
	C259.212830,230.720291 259.166626,230.574463 259.161346,230.499222 
	C260.098145,230.357040 261.040222,230.290100 262.334930,230.194977 
z"/>
<path fill="#CC9C01" opacity="1.000000" stroke="none" 
	d="
M175.887070,70.782829 
	C183.040314,61.755814 191.073349,53.730297 201.709595,48.122368 
	C212.736328,44.066044 223.480545,40.233887 234.549240,36.740589 
	C235.427994,40.217567 235.982269,43.355690 236.536560,46.493813 
	C230.375137,57.082458 221.166931,66.633080 217.027374,79.363014 
	C216.795914,80.074799 215.791946,80.499199 215.368744,81.192406 
	C214.516235,82.588837 213.234406,84.045769 213.150925,85.534981 
	C212.718872,93.242638 207.924423,98.725975 203.918137,104.638031 
	C199.398560,111.307533 195.019104,118.026810 196.990143,126.737793 
	C197.061768,127.054405 197.052063,127.411018 196.992188,127.732590 
	C195.823380,134.010040 194.641464,140.285034 193.384003,146.976791 
	C184.518600,147.765823 178.285141,141.975037 174.005524,136.595459 
	C169.227753,130.589645 168.298538,121.799362 169.333008,113.753593 
	C170.486313,104.783508 172.409485,95.912399 174.033997,86.648285 
	C175.081757,84.798729 176.089371,83.296623 177.104935,81.799904 
	C181.193802,75.773819 181.152969,75.396652 175.887070,70.782829 
z"/>
<path fill="#E0B801" opacity="1.000000" stroke="none" 
	d="
M271.084778,37.666100 
	C275.562042,38.933498 280.039276,40.200901 284.432556,41.913551 
	C284.163940,44.973846 283.822205,47.590607 283.850586,50.203339 
	C283.869263,51.920406 284.986877,53.759125 284.634064,55.322620 
	C283.368835,60.929482 281.829224,66.486588 280.120148,71.977478 
	C278.608002,76.835701 276.692932,81.567162 275.026215,86.378983 
	C272.862396,92.625931 270.768280,98.897026 268.267395,105.144287 
	C264.317108,104.817810 262.187897,106.481155 261.914825,110.004944 
	C261.605560,113.996101 263.728058,116.063416 267.791870,116.699356 
	C267.992126,119.367851 268.334381,121.620964 268.161957,123.833984 
	C267.534363,131.889496 266.673065,139.926605 266.021057,147.980469 
	C265.567780,153.579483 265.581665,159.228027 264.888245,164.792328 
	C264.283203,169.647446 262.980927,174.415695 261.873535,179.242615 
	C261.760345,179.262909 261.599304,179.098495 261.204498,179.082062 
	C259.875977,179.368423 258.942261,179.671204 257.634277,180.097717 
	C256.218536,180.294876 255.177048,180.368286 253.984177,180.140808 
	C253.259964,180.091461 252.687134,180.342972 251.774582,180.691956 
	C248.221985,180.389191 245.009125,179.988953 241.871002,179.166504 
	C242.629745,176.380264 243.791504,174.040878 243.914902,171.647964 
	C244.443604,161.394058 244.337402,151.099594 245.107254,140.868439 
	C245.699493,132.997757 247.067505,125.166931 248.427948,117.377312 
	C250.065826,107.999023 256.740356,100.177322 256.907318,90.244934 
	C256.947479,87.855568 259.011780,85.410133 258.787598,83.123573 
	C258.157562,76.697159 260.154999,71.423012 263.729156,66.237175 
	C265.747833,63.308247 267.190186,59.746704 267.987152,56.263077 
	C269.386139,50.147915 270.089844,43.873695 271.084778,37.666100 
z"/>
<path fill="#DBB001" opacity="1.000000" stroke="none" 
	d="
M270.773132,37.454506 
	C270.089844,43.873695 269.386139,50.147915 267.987152,56.263077 
	C267.190186,59.746704 265.747833,63.308247 263.729156,66.237175 
	C260.154999,71.423012 258.157562,76.697159 258.787598,83.123573 
	C259.011780,85.410133 256.947479,87.855568 256.907318,90.244934 
	C256.740356,100.177322 250.065826,107.999023 248.427948,117.377312 
	C247.067505,125.166931 245.699493,132.997757 245.107254,140.868439 
	C244.337402,151.099594 244.443604,161.394058 243.914902,171.647964 
	C243.791504,174.040878 242.629745,176.380264 241.553955,179.120163 
	C240.773132,179.322021 240.384094,179.148010 239.920990,178.810577 
	C239.573685,178.711166 239.300446,178.775177 238.667236,178.825958 
	C233.097458,175.909119 227.887665,173.005524 223.082794,170.040665 
	C226.292358,169.469696 227.439468,167.723267 226.976135,164.999771 
	C226.482697,162.099243 225.640411,159.249832 225.279190,156.337326 
	C224.904617,153.317215 224.549530,150.211838 224.841324,147.207413 
	C225.723679,138.122543 226.923828,129.068527 228.347260,120.073860 
	C232.279449,121.654541 234.602310,119.955055 235.581177,116.770454 
	C236.875046,112.561096 234.113754,110.510551 230.936981,109.064346 
	C232.532135,106.063370 234.007858,103.300117 234.916412,100.361504 
	C235.580765,98.212769 234.932907,95.571701 235.844055,93.600288 
	C240.924530,82.607826 246.200851,71.701691 251.648087,60.885834 
	C253.035477,58.131054 255.499802,55.936169 257.073303,53.251896 
	C258.273926,51.203690 259.662842,48.736279 259.521484,46.548832 
	C259.278870,42.795525 257.906708,39.115227 257.008789,35.404274 
	C261.493042,36.017155 265.977264,36.630035 270.773132,37.454506 
z"/>
<path fill="#D4A401" opacity="1.000000" stroke="none" 
	d="
M228.000122,120.002480 
	C226.923828,129.068527 225.723679,138.122543 224.841324,147.207413 
	C224.549530,150.211838 224.904617,153.317215 225.279190,156.337326 
	C225.640411,159.249832 226.482697,162.099243 226.976135,164.999771 
	C227.439468,167.723267 226.292358,169.469696 222.781097,169.917557 
	C215.305084,163.622452 209.870544,156.538483 207.534042,147.416611 
	C206.808853,144.585449 205.850662,141.813980 204.997208,138.588486 
	C202.747238,130.357544 204.872314,123.221611 207.911102,116.034531 
	C211.223434,108.200470 214.539185,100.286072 216.814255,92.117271 
	C219.290771,83.225113 223.410172,75.341003 228.616211,67.915825 
	C233.075928,61.555115 237.836914,55.405025 242.262955,49.021915 
	C243.041077,47.899727 243.092819,46.073120 243.011108,44.597794 
	C242.847549,41.645111 242.359528,38.710403 242.005478,35.768272 
	C246.706345,35.566315 251.407196,35.364357 256.558411,35.283333 
	C257.906708,39.115227 259.278870,42.795525 259.521484,46.548832 
	C259.662842,48.736279 258.273926,51.203690 257.073303,53.251896 
	C255.499802,55.936169 253.035477,58.131054 251.648087,60.885834 
	C246.200851,71.701691 240.924530,82.607826 235.844055,93.600288 
	C234.932907,95.571701 235.580765,98.212769 234.916412,100.361504 
	C234.007858,103.300117 232.532135,106.063370 230.797684,109.110672 
	C230.295837,109.319550 230.045837,109.165146 229.929382,108.974411 
	C229.580078,109.016762 229.347229,109.249855 228.832764,109.680954 
	C223.933502,113.223824 223.843399,114.879021 228.000122,120.002480 
z"/>
<path fill="#D0A001" opacity="1.000000" stroke="none" 
	d="
M241.628006,35.728836 
	C242.359528,38.710403 242.847549,41.645111 243.011108,44.597794 
	C243.092819,46.073120 243.041077,47.899727 242.262955,49.021915 
	C237.836914,55.405025 233.075928,61.555115 228.616211,67.915825 
	C223.410172,75.341003 219.290771,83.225113 216.814255,92.117271 
	C214.539185,100.286072 211.223434,108.200470 207.911102,116.034531 
	C204.872314,123.221611 202.747238,130.357544 204.611542,138.686523 
	C204.181503,142.709198 204.135223,146.207138 204.142212,149.966675 
	C204.436356,150.479446 204.677246,150.730621 205.032913,151.254333 
	C205.143082,151.919998 205.138474,152.313126 205.091858,153.108948 
	C204.046387,156.301453 202.525803,159.021927 202.140610,161.894653 
	C201.156143,169.236801 200.747467,176.654541 199.930466,184.022308 
	C199.787506,185.311523 199.048615,186.883896 198.059814,187.587784 
	C197.538528,187.958862 195.796997,186.872299 194.756073,186.209045 
	C191.572693,184.180649 188.457977,182.044174 185.325806,179.936020 
	C184.660858,179.488449 183.796997,179.119385 183.430527,178.481171 
	C181.268326,174.715729 178.718948,171.066513 177.246582,167.032639 
	C173.955826,158.016953 169.094193,149.680145 167.311096,139.971436 
	C164.591461,125.163483 163.321640,110.589622 167.995255,95.993484 
	C167.995590,95.245155 167.995911,94.496834 168.338425,93.323196 
	C170.452927,90.931328 172.225250,88.964767 173.997559,86.998215 
	C172.409485,95.912399 170.486313,104.783508 169.333008,113.753593 
	C168.298538,121.799362 169.227753,130.589645 174.005524,136.595459 
	C178.285141,141.975037 184.518600,147.765823 193.384003,146.976791 
	C194.641464,140.285034 195.823380,134.010040 196.992188,127.732590 
	C197.052063,127.411018 197.061768,127.054405 196.990143,126.737793 
	C195.019104,118.026810 199.398560,111.307533 203.918137,104.638031 
	C207.924423,98.725975 212.718872,93.242638 213.150925,85.534981 
	C213.234406,84.045769 214.516235,82.588837 215.368744,81.192406 
	C215.791946,80.499199 216.795914,80.074799 217.027374,79.363014 
	C221.166931,66.633080 230.375137,57.082458 236.536560,46.493813 
	C235.982269,43.355690 235.427994,40.217567 234.928162,36.748981 
	C237.071930,36.175480 239.161224,35.932442 241.628006,35.728836 
z"/>
<path fill="#E5C100" opacity="1.000000" stroke="none" 
	d="
M268.644196,105.157738 
	C270.768280,98.897026 272.862396,92.625931 275.026215,86.378983 
	C276.692932,81.567162 278.608002,76.835701 280.120148,71.977478 
	C281.829224,66.486588 283.368835,60.929482 284.634064,55.322620 
	C284.986877,53.759125 283.869263,51.920406 283.850586,50.203339 
	C283.822205,47.590607 284.163940,44.973846 284.684662,42.173546 
	C289.761597,44.313721 294.502441,46.639141 299.368805,49.335846 
	C298.923492,51.397682 298.233795,53.059364 297.814148,54.786655 
	C297.366608,56.628780 297.855469,59.355068 296.753204,60.268410 
	C291.837769,64.341278 291.050262,69.638504 290.941284,75.434113 
	C290.899017,77.681740 290.555511,80.062469 289.719025,82.127274 
	C288.021454,86.317688 285.066589,90.152061 284.118988,94.460678 
	C282.218750,103.100639 281.262512,111.952652 280.022827,120.732132 
	C278.939575,128.403412 277.798218,136.075562 277.053711,143.783188 
	C276.204346,152.576920 275.733490,161.408371 275.190002,170.229080 
	C275.122437,171.325516 275.617157,172.456589 275.700287,173.580109 
	C275.549225,173.588623 275.329132,173.383240 275.007294,173.416000 
	C274.499420,173.823929 274.313416,174.199097 273.869812,174.791092 
	C269.737091,176.412720 265.861908,177.817535 261.986725,179.222321 
	C262.980927,174.415695 264.283203,169.647446 264.888245,164.792328 
	C265.581665,159.228027 265.567780,153.579483 266.021057,147.980469 
	C266.673065,139.926605 267.534363,131.889496 268.161957,123.833984 
	C268.334381,121.620964 267.992126,119.367851 268.103210,116.576714 
	C273.291473,112.443497 273.370636,109.787788 268.644196,105.157738 
z"/>
<path fill="#E7C801" opacity="1.000000" stroke="none" 
	d="
M275.851349,173.571625 
	C275.617157,172.456589 275.122437,171.325516 275.190002,170.229080 
	C275.733490,161.408371 276.204346,152.576920 277.053711,143.783188 
	C277.798218,136.075562 278.939575,128.403412 280.022827,120.732132 
	C281.262512,111.952652 282.218750,103.100639 284.118988,94.460678 
	C285.066589,90.152061 288.021454,86.317688 289.719025,82.127274 
	C290.555511,80.062469 290.899017,77.681740 290.941284,75.434113 
	C291.050262,69.638504 291.837769,64.341278 296.753204,60.268410 
	C297.855469,59.355068 297.366608,56.628780 297.814148,54.786655 
	C298.233795,53.059364 298.923492,51.397682 299.712036,49.460461 
	C301.409912,50.091942 302.890045,50.970089 304.657440,52.005402 
	C306.640533,53.524059 308.336365,54.885563 309.943573,56.666649 
	C309.530670,58.723366 308.492004,60.650345 309.016479,61.943146 
	C310.574310,65.782944 309.030640,67.835609 306.343353,70.473282 
	C304.034149,72.739830 302.486115,76.155182 301.541840,79.341217 
	C300.444885,83.042526 300.483337,87.066620 299.820404,90.914680 
	C299.308228,93.887924 298.285278,96.462173 294.922424,97.697937 
	C293.457520,98.236237 291.764465,100.023705 291.447510,101.514412 
	C289.293579,111.645149 283.204163,120.671585 283.777924,131.621796 
	C284.388885,143.282150 284.131378,154.988022 284.089447,166.948441 
	C281.234344,169.339111 278.542847,171.455368 275.851349,173.571625 
z"/>
<path fill="#E7C801" opacity="1.000000" stroke="none" 
	d="
M277.381531,225.959686 
	C274.152344,220.370682 278.286438,215.452637 278.490906,210.149094 
	C278.819946,201.615799 279.732513,193.097122 279.802155,184.567413 
	C279.818695,182.538696 277.474701,180.490707 276.268250,177.851593 
	C279.321686,175.060501 282.323334,172.869415 285.678223,170.827789 
	C287.687683,172.985443 289.343842,174.993637 290.999451,177.431458 
	C291.602631,180.529831 292.216583,183.196350 292.805664,185.868347 
	C293.085815,187.139038 293.616791,188.443069 293.520844,189.692596 
	C293.119415,194.919464 292.545593,200.133743 291.988495,205.347687 
	C291.744141,207.634827 291.254059,209.902084 291.117493,212.192795 
	C290.945862,215.071442 291.022278,217.964859 290.991669,220.851898 
	C286.583435,222.561493 282.175201,224.271103 277.381531,225.959686 
z"/>
<path fill="#E6D40F" opacity="1.000000" stroke="none" 
	d="
M291.000000,177.001831 
	C289.343842,174.993637 287.687683,172.985443 285.839844,170.540161 
	C286.741241,169.060150 287.834320,168.017212 289.307556,166.982849 
	C290.447205,167.002457 291.206635,167.013489 292.079834,167.279892 
	C292.462402,168.023499 292.731201,168.511749 293.026337,169.333023 
	C294.035126,171.111725 295.017548,172.557388 296.055481,174.342377 
	C296.442566,175.007126 296.890259,175.675278 297.088806,175.608017 
	C302.451813,173.790894 302.900360,177.083450 303.050934,181.061768 
	C303.137634,183.352997 303.055969,186.162338 304.300018,187.772949 
	C305.985809,189.955399 308.804749,191.331116 311.323883,192.713348 
	C311.634125,192.883560 313.088348,190.968842 314.270142,189.908707 
	C315.023010,189.534622 315.518219,189.272125 316.370850,188.969391 
	C317.795441,188.566650 319.072296,188.463165 319.894165,187.797714 
	C323.894104,184.559082 326.157959,186.750168 328.113434,190.209259 
	C322.495178,196.267639 316.876892,202.326004 311.098389,208.679230 
	C310.938171,208.974075 310.513397,209.012695 309.919159,209.013779 
	C308.315155,208.783508 307.305420,208.552155 306.062073,208.267273 
	C307.386139,205.130020 308.517700,202.448837 309.909454,199.151154 
	C302.498291,199.307175 298.992462,195.938141 298.151733,188.694351 
	C297.625671,184.161804 297.343536,178.437729 291.000000,177.001831 
z"/>
<path fill="#E8CF05" opacity="1.000000" stroke="none" 
	d="
M290.999451,177.431458 
	C297.343536,178.437729 297.625671,184.161804 298.151733,188.694351 
	C298.992462,195.938141 302.498291,199.307175 309.909454,199.151154 
	C308.517700,202.448837 307.386139,205.130020 306.062073,208.267273 
	C307.305420,208.552155 308.315155,208.783508 309.706085,209.022156 
	C303.953491,212.946869 297.819702,216.864288 291.338806,220.816818 
	C291.022278,217.964859 290.945862,215.071442 291.117493,212.192795 
	C291.254059,209.902084 291.744141,207.634827 291.988495,205.347687 
	C292.545593,200.133743 293.119415,194.919464 293.520844,189.692596 
	C293.616791,188.443069 293.085815,187.139038 292.805664,185.868347 
	C292.216583,183.196350 291.602631,180.529831 290.999451,177.431458 
z"/>
<path fill="#E5D819" opacity="1.000000" stroke="none" 
	d="
M328.404022,190.026505 
	C326.157959,186.750168 323.894104,184.559082 319.894165,187.797714 
	C319.072296,188.463165 317.795441,188.566650 316.365723,188.714340 
	C315.999695,188.329559 315.996216,188.159607 316.128845,187.678482 
	C325.008026,177.083221 329.395905,164.802979 331.057251,151.756027 
	C332.263519,142.282852 331.753174,132.591080 332.365051,123.035934 
	C334.273804,124.503906 335.825684,125.932724 337.498474,127.472839 
	C337.498474,121.218788 338.102661,115.032043 337.330231,109.022240 
	C336.542206,102.891273 334.186096,96.976616 332.983429,90.875229 
	C332.619781,89.030365 333.811218,86.878983 334.290344,84.867996 
	C336.532562,89.655754 338.774811,94.443520 340.682953,99.674759 
	C340.063293,101.717476 338.960480,103.917824 339.623535,104.819267 
	C344.248749,111.107338 342.525940,118.359543 342.850311,125.165283 
	C343.191467,132.323593 342.380493,139.541565 341.980225,146.728302 
	C341.802216,149.925217 341.396881,153.109467 341.060669,156.658798 
	C341.612762,156.746643 342.700165,156.919678 343.787537,157.092728 
	C343.534943,158.133148 343.282349,159.173569 342.565186,160.604645 
	C341.191437,161.226746 340.282257,161.458176 339.373077,161.689606 
	C339.392517,161.946243 339.411926,162.202881 339.431366,162.459518 
	C340.256500,162.634415 341.081665,162.809311 341.906830,162.984207 
	C341.810699,163.900925 341.714600,164.817627 341.408295,166.251373 
	C340.650757,168.135712 340.103424,169.503036 339.556091,170.870346 
	C339.339142,171.320297 339.122223,171.770248 338.893250,172.474945 
	C335.485657,178.434372 332.090118,184.139069 328.404022,190.026505 
z"/>
<path fill="#E8CF05" opacity="1.000000" stroke="none" 
	d="
M284.253082,166.674011 
	C284.131378,154.988022 284.388885,143.282150 283.777924,131.621796 
	C283.204163,120.671585 289.293579,111.645149 291.447510,101.514412 
	C291.764465,100.023705 293.457520,98.236237 294.922424,97.697937 
	C298.285278,96.462173 299.308228,93.887924 299.820404,90.914680 
	C300.483337,87.066620 300.444885,83.042526 301.541840,79.341217 
	C302.486115,76.155182 304.034149,72.739830 306.343353,70.473282 
	C309.030640,67.835609 310.574310,65.782944 309.016479,61.943146 
	C308.492004,60.650345 309.530670,58.723366 310.195312,56.892876 
	C314.227600,60.140697 317.919556,63.581879 321.356415,67.430069 
	C317.599731,68.966782 319.935394,70.569382 320.533173,72.347290 
	C321.742188,75.943306 322.506409,79.688866 323.761536,84.568108 
	C320.870758,83.599625 319.713379,83.406158 318.761292,82.856819 
	C315.787140,81.140709 312.825836,82.113297 312.044128,84.756561 
	C309.897522,92.015198 303.897491,98.143875 305.852478,106.679665 
	C306.819702,110.902702 304.245392,112.513412 300.114563,110.692932 
	C297.469910,109.527420 295.574524,109.717865 294.653595,113.034660 
	C289.757782,115.594101 287.060577,119.388290 287.032562,124.642845 
	C286.964050,137.518616 287.061249,150.395264 286.938385,163.551239 
	C285.941010,164.778595 285.097046,165.726303 284.253082,166.674011 
z"/>
<path fill="#E6D40F" opacity="1.000000" stroke="none" 
	d="
M295.001221,112.998558 
	C295.574524,109.717865 297.469910,109.527420 300.114563,110.692932 
	C304.245392,112.513412 306.819702,110.902702 305.852478,106.679665 
	C303.897491,98.143875 309.897522,92.015198 312.044128,84.756561 
	C312.825836,82.113297 315.787140,81.140709 318.761292,82.856819 
	C319.713379,83.406158 320.870758,83.599625 323.761536,84.568108 
	C322.506409,79.688866 321.742188,75.943306 320.533173,72.347290 
	C319.935394,70.569382 317.599731,68.966782 321.521606,67.748779 
	C325.755676,72.692062 329.569489,77.723648 333.648560,82.973679 
	C333.996246,83.564331 334.078644,83.936554 334.225708,84.588379 
	C333.811218,86.878983 332.619781,89.030365 332.983429,90.875229 
	C334.186096,96.976616 336.542206,102.891273 337.330231,109.022240 
	C338.102661,115.032043 337.498474,121.218788 337.498474,127.472839 
	C335.825684,125.932724 334.273804,124.503906 332.353943,122.705948 
	C331.975159,121.896622 331.964386,121.456436 332.216736,120.820679 
	C331.986176,119.749947 331.492493,118.874786 330.989746,117.632202 
	C330.969269,116.529778 330.957855,115.794785 330.864960,114.789185 
	C330.529938,114.016617 330.276398,113.514671 330.291016,112.770050 
	C329.967041,103.487907 323.975586,96.906441 320.067810,87.479683 
	C316.816162,90.803123 313.638123,92.751709 312.471100,95.541534 
	C310.610718,99.988960 309.975800,104.974182 309.037354,109.773964 
	C308.314636,113.470528 307.921814,117.231583 307.278870,121.679321 
	C300.222382,113.366653 300.222382,113.366653 295.001221,112.998558 
z"/>
<path fill="#D4A401" opacity="1.000000" stroke="none" 
	d="
M174.034012,86.648285 
	C172.225250,88.964767 170.452927,90.931328 168.337952,92.949028 
	C167.357971,90.586174 166.720642,88.172180 166.034698,85.370621 
	C166.316940,84.204659 166.647781,83.426262 167.011566,82.321861 
	C167.307724,81.562798 167.570938,81.129745 168.145493,80.344894 
	C168.671005,79.731018 168.885162,79.468933 169.099335,79.206848 
	C171.166779,76.513649 173.234222,73.820450 175.594360,70.955040 
	C181.152969,75.396652 181.193802,75.773819 177.104935,81.799904 
	C176.089371,83.296623 175.081757,84.798729 174.034012,86.648285 
z"/>
<path fill="#E2E2E2" opacity="1.000000" stroke="none" 
	d="
M168.951233,79.011215 
	C168.885162,79.468933 168.671005,79.731018 168.215820,80.099060 
	C168.250900,79.741867 168.527008,79.278717 168.951233,79.011215 
z"/>
<path fill="#E9E9E9" opacity="1.000000" stroke="none" 
	d="
M154.680801,116.202209 
	C154.818222,116.617783 154.718781,117.214111 154.338623,117.950691 
	C154.186600,117.521622 154.315262,116.952293 154.680801,116.202209 
z"/>
<path fill="#E1D626" opacity="1.000000" stroke="none" 
	d="
M343.930725,156.786041 
	C342.700165,156.919678 341.612762,156.746643 341.060669,156.658798 
	C341.396881,153.109467 341.802216,149.925217 341.980225,146.728302 
	C342.380493,139.541565 343.191467,132.323593 342.850311,125.165283 
	C342.525940,118.359543 344.248749,111.107338 339.623535,104.819267 
	C338.960480,103.917824 340.063293,101.717476 340.721252,100.047302 
	C342.000549,102.424957 342.907471,104.873550 343.952026,107.665207 
	C344.960938,119.318512 345.832214,130.628769 346.616821,142.389603 
	C345.711426,147.386566 344.892700,151.932953 343.930725,156.786041 
z"/>
<path fill="#E1D626" opacity="1.000000" stroke="none" 
	d="
M342.127502,162.796143 
	C341.081665,162.809311 340.256500,162.634415 339.431366,162.459518 
	C339.411926,162.202881 339.392517,161.946243 339.373077,161.689606 
	C340.282257,161.458176 341.191437,161.226746 342.451355,160.990387 
	C342.650757,161.526352 342.499481,162.067215 342.127502,162.796143 
z"/>
<path fill="#F3F3F3" opacity="1.000000" stroke="none" 
	d="
M339.985352,170.852905 
	C340.103424,169.503036 340.650757,168.135712 341.521057,166.582382 
	C341.367554,167.876083 340.891083,169.355774 339.985352,170.852905 
z"/>
<path fill="#D4A401" opacity="1.000000" stroke="none" 
	d="
M167.637222,96.058014 
	C163.321640,110.589622 164.591461,125.163483 167.311096,139.971436 
	C169.094193,149.680145 173.955826,158.016953 177.246582,167.032639 
	C178.718948,171.066513 181.268326,174.715729 183.430527,178.481171 
	C183.796997,179.119385 184.660858,179.488449 185.325806,179.936020 
	C188.457977,182.044174 191.572693,184.180649 194.756073,186.209045 
	C195.796997,186.872299 197.538528,187.958862 198.059814,187.587784 
	C199.048615,186.883896 199.787506,185.311523 199.930466,184.022308 
	C200.747467,176.654541 201.156143,169.236801 202.140610,161.894653 
	C202.525803,159.021927 204.046387,156.301453 205.378967,153.326172 
	C210.511307,159.745422 215.314529,166.350128 220.117767,172.954819 
	C221.526932,177.214066 221.376526,181.440765 220.229523,185.761795 
	C220.038651,186.480820 221.417480,187.606583 222.051559,188.557343 
	C222.683655,189.505112 223.846893,190.487976 223.815201,191.422836 
	C223.664795,195.859283 223.641525,200.406067 222.515488,204.631760 
	C222.219696,205.741791 217.821274,206.864182 215.859726,206.240952 
	C205.078857,202.815521 195.618027,196.662521 188.203598,188.354507 
	C181.689636,181.055496 175.728943,172.861877 171.365677,164.141800 
	C165.385086,152.189468 161.819092,139.409164 161.684189,125.544426 
	C161.593964,116.272217 162.789719,107.591400 165.566452,98.946518 
	C165.893906,97.926994 166.696732,97.060158 167.637222,96.058014 
z"/>
<path fill="#271102" opacity="1.000000" stroke="none" 
	d="
M220.432709,173.082214 
	C215.314529,166.350128 210.511307,159.745422 205.420959,152.923492 
	C205.138474,152.313126 205.143082,151.919998 205.010803,150.979813 
	C204.612244,150.190201 204.350586,149.947632 204.088928,149.705063 
	C204.135223,146.207138 204.181503,142.709198 204.613464,139.113220 
	C205.850662,141.813980 206.808853,144.585449 207.534042,147.416611 
	C209.870544,156.538483 215.305084,163.622452 222.376190,169.978806 
	C227.887665,173.005524 233.097458,175.909119 238.902618,178.906799 
	C239.498001,179.000900 239.995071,178.973999 239.995071,178.973999 
	C240.384094,179.148010 240.773132,179.322021 241.479202,179.542389 
	C245.009125,179.988953 248.221985,180.389191 252.114594,180.738388 
	C253.241409,180.605469 253.688477,180.523575 254.135559,180.441696 
	C255.177048,180.368286 256.218536,180.294876 258.019592,180.130829 
	C259.719208,179.726303 260.659241,179.412399 261.599304,179.098495 
	C261.599304,179.098495 261.760345,179.262909 261.873535,179.242615 
	C265.861908,177.817535 269.737091,176.412720 274.146271,174.660950 
	C274.896545,174.003738 275.112823,173.693481 275.329132,173.383240 
	C275.329132,173.383240 275.549225,173.588623 275.700287,173.580124 
	C278.542847,171.455368 281.234344,169.339111 284.089447,166.948441 
	C285.097046,165.726303 285.941010,164.778595 287.205902,163.401917 
	C288.143250,162.116241 288.659698,161.259567 289.465149,160.193787 
	C295.565948,151.227249 297.752045,141.573105 297.062500,131.147659 
	C296.992645,130.091736 297.855042,128.974136 298.284851,127.885162 
	C298.871124,128.982834 299.867188,130.039886 299.980652,131.184418 
	C301.209900,143.585037 297.724762,154.720688 290.395966,164.980576 
	C289.745087,165.741852 289.336243,166.358063 288.927368,166.974274 
	C287.834320,168.017212 286.741241,169.060150 285.486572,170.390701 
	C282.323334,172.869415 279.321686,175.060501 276.122314,177.515533 
	C270.620850,179.604828 265.317078,181.430206 259.636658,183.430969 
	C253.121124,183.390305 246.982193,183.174286 240.420685,182.967361 
	C233.581284,179.720840 227.164474,176.465225 220.432709,173.082214 
z"/>
<path fill="#271102" opacity="1.000000" stroke="none" 
	d="
M268.267395,105.144287 
	C273.370636,109.787788 273.291473,112.443497 268.009033,116.142944 
	C263.728058,116.063416 261.605560,113.996101 261.914825,110.004944 
	C262.187897,106.481155 264.317108,104.817810 268.267395,105.144287 
z"/>
<path fill="#E5C100" opacity="1.000000" stroke="none" 
	d="
M261.204498,179.082062 
	C260.659241,179.412399 259.719208,179.726303 258.393860,180.007080 
	C258.942261,179.671204 259.875977,179.368423 261.204498,179.082062 
z"/>
<path fill="#E5C100" opacity="1.000000" stroke="none" 
	d="
M253.984177,180.140808 
	C253.688477,180.523575 253.241409,180.605469 252.454315,180.640930 
	C252.687134,180.342972 253.259964,180.091461 253.984177,180.140808 
z"/>
<path fill="#271102" opacity="1.000000" stroke="none" 
	d="
M230.045837,109.165146 
	C230.045837,109.165146 230.295837,109.319550 230.435120,109.273224 
	C234.113754,110.510551 236.875046,112.561096 235.581177,116.770454 
	C234.602310,119.955055 232.279449,121.654541 228.347260,120.073860 
	C223.843399,114.879021 223.933502,113.223824 229.070328,109.614594 
	C229.589493,109.350235 230.045837,109.165146 230.045837,109.165146 
z"/>
<path fill="#E0B801" opacity="1.000000" stroke="none" 
	d="
M239.920990,178.810577 
	C239.995071,178.973999 239.498001,179.000900 239.262604,178.920044 
	C239.300446,178.775177 239.573685,178.711166 239.920990,178.810577 
z"/>
<path fill="#DBB001" opacity="1.000000" stroke="none" 
	d="
M229.929382,108.974411 
	C230.045837,109.165146 229.589493,109.350235 229.351929,109.416595 
	C229.347229,109.249855 229.580078,109.016762 229.929382,108.974411 
z"/>
<path fill="#D4A401" opacity="1.000000" stroke="none" 
	d="
M204.142197,149.966675 
	C204.350586,149.947632 204.612244,150.190201 204.896027,150.707275 
	C204.677246,150.730621 204.436356,150.479446 204.142197,149.966675 
z"/>
<path fill="#E7C801" opacity="1.000000" stroke="none" 
	d="
M275.007294,173.416000 
	C275.112823,173.693481 274.896545,174.003738 274.403809,174.444122 
	C274.313416,174.199097 274.499420,173.823929 275.007294,173.416000 
z"/>
<path fill="#E5D819" opacity="1.000000" stroke="none" 
	d="
M289.176147,160.402893 
	C288.659698,161.259567 288.143250,162.116241 287.359283,163.122238 
	C287.061249,150.395264 286.964050,137.518616 287.032562,124.642845 
	C287.060577,119.388290 289.757782,115.594101 294.653595,113.034660 
	C300.222382,113.366653 300.222382,113.366653 307.278870,121.679321 
	C307.921814,117.231583 308.314636,113.470528 309.037354,109.773964 
	C309.975800,104.974182 310.610718,99.988960 312.471100,95.541534 
	C313.638123,92.751709 316.816162,90.803123 320.067810,87.479683 
	C323.975586,96.906441 329.967041,103.487907 330.118286,112.440697 
	C326.975189,111.667397 324.047668,109.945091 321.610229,110.475410 
	C311.646759,112.643257 308.959564,120.042343 312.010620,132.467102 
	C312.000366,136.954010 311.993347,140.977966 311.730621,145.178833 
	C311.317841,146.571091 311.160736,147.786484 311.003662,149.400192 
	C310.989471,150.860611 310.975220,151.922684 310.671875,153.020081 
	C310.256958,153.704407 310.131165,154.353409 310.005188,155.400726 
	C309.990875,156.861160 309.976715,157.923264 309.673370,159.020386 
	C309.257111,159.704193 309.130066,160.352997 308.965240,161.366302 
	C308.609131,163.150253 308.290771,164.569702 307.650909,166.036896 
	C307.215973,167.055862 307.102539,168.027069 306.989685,169.329605 
	C306.982117,170.102386 306.973938,170.543839 306.588043,171.072098 
	C303.006256,178.777725 304.454529,186.084473 314.012451,190.020294 
	C313.088348,190.968842 311.634125,192.883560 311.323883,192.713348 
	C308.804749,191.331116 305.985809,189.955399 304.300018,187.772949 
	C303.055969,186.162338 303.137634,183.352997 303.050934,181.061768 
	C302.900360,177.083450 302.451813,173.790894 297.088806,175.608017 
	C296.890259,175.675278 296.442566,175.007126 296.426392,174.333405 
	C297.497406,172.994415 298.252960,172.003738 299.004242,171.006531 
	C299.000000,171.000000 299.012695,171.007660 299.334045,170.963974 
	C300.097687,170.270966 300.539978,169.621643 300.985596,168.644928 
	C300.998260,167.881104 301.007629,167.444687 301.357666,166.953903 
	C302.710968,165.059860 307.380127,164.023041 302.994629,160.599228 
	C303.004944,159.137146 303.014801,158.073837 303.387329,156.943390 
	C306.282654,154.336533 307.571289,151.750198 304.037537,148.586914 
	C304.035614,147.132431 304.041687,146.074600 304.425690,144.925140 
	C305.195831,143.334625 306.116547,141.749435 305.888306,140.351883 
	C304.932648,134.500259 303.863922,128.642563 302.324738,122.924896 
	C301.829803,121.086365 299.808289,118.404907 298.401764,118.352615 
	C296.159729,118.269272 293.030212,119.444046 291.713318,121.178246 
	C287.108734,127.241951 288.658203,134.209946 289.996429,141.334274 
	C289.999542,142.109894 289.999084,142.553131 289.737122,143.207077 
	C289.650421,144.613190 289.825226,145.808578 289.960632,147.373505 
	C289.672852,151.962967 289.424500,156.182922 289.176147,160.402893 
z"/>
<path fill="#E1DB48" opacity="1.000000" stroke="none" 
	d="
M303.024658,157.010513 
	C303.014801,158.073837 303.004944,159.137146 302.721619,160.823059 
	C301.971069,163.299850 301.494019,165.154053 301.016968,167.008255 
	C301.007629,167.444687 300.998260,167.881104 300.666901,168.694565 
	C299.900818,169.716949 299.456757,170.362305 299.012695,171.007660 
	C299.012695,171.007660 299.000000,171.000000 298.638245,170.998535 
	C296.517639,170.331360 294.758820,169.665680 293.000000,169.000000 
	C292.731201,168.511749 292.462402,168.023499 292.052490,166.935501 
	C291.486908,165.835678 291.062439,165.335587 290.637970,164.835510 
	C297.724762,154.720688 301.209900,143.585037 299.980652,131.184418 
	C299.867188,130.039886 298.871124,128.982834 298.284851,127.885162 
	C297.855042,128.974136 296.992645,130.091736 297.062500,131.147659 
	C297.752045,141.573105 295.565948,151.227249 289.465149,160.193787 
	C289.424500,156.182922 289.672852,151.962967 290.222473,147.163361 
	C290.348724,145.387924 290.173676,144.192139 289.998596,142.996353 
	C289.999084,142.553131 289.999542,142.109894 290.291565,141.050659 
	C290.721771,138.960281 290.962219,137.487335 290.982422,136.011368 
	C291.108643,126.795212 291.364471,126.497368 301.520966,125.581299 
	C302.358887,132.026291 303.203308,138.521530 304.047791,145.016769 
	C304.041687,146.074600 304.035614,147.132431 304.017700,148.996002 
	C303.678802,152.204666 303.351715,154.607590 303.024658,157.010513 
z"/>
<path fill="#E1D626" opacity="1.000000" stroke="none" 
	d="
M314.270142,189.908722 
	C304.454529,186.084473 303.006256,178.777725 306.600098,171.529205 
	C306.990265,173.894257 306.963989,175.889435 306.996429,177.883667 
	C307.074463,182.680145 310.869934,186.928574 315.992767,187.989655 
	C315.996216,188.159607 315.999695,188.329559 316.008301,188.754578 
	C315.518219,189.272125 315.023010,189.534622 314.270142,189.908722 
z"/>
<path fill="#E1D626" opacity="1.000000" stroke="none" 
	d="
M293.026337,169.333023 
	C294.758820,169.665680 296.517639,170.331360 298.642456,171.005066 
	C298.252960,172.003738 297.497406,172.994415 296.370911,173.994080 
	C295.017548,172.557388 294.035126,171.111725 293.026337,169.333023 
z"/>
<path fill="#E1D626" opacity="1.000000" stroke="none" 
	d="
M290.395966,164.980576 
	C291.062439,165.335587 291.486908,165.835678 291.938721,166.680145 
	C291.206635,167.013489 290.447205,167.002457 289.307556,166.982849 
	C289.336243,166.358063 289.745087,165.741852 290.395966,164.980576 
z"/>
<path fill="#E1DB48" opacity="1.000000" stroke="none" 
	d="
M316.128845,187.678482 
	C310.869934,186.928574 307.074463,182.680145 306.996429,177.883667 
	C306.963989,175.889435 306.990265,173.894257 306.977814,171.442413 
	C306.973938,170.543839 306.982117,170.102386 307.256470,169.126526 
	C307.672577,167.724487 307.822510,166.856812 307.972412,165.989151 
	C308.290771,164.569702 308.609131,163.150253 309.211426,161.198334 
	C309.651093,160.105682 309.806824,159.545517 309.962585,158.985367 
	C309.976715,157.923264 309.990875,156.861160 310.250183,155.231628 
	C310.650574,154.104385 310.805786,153.544586 310.960999,152.984772 
	C310.975220,151.922684 310.989471,150.860611 311.298706,149.253326 
	C311.724609,147.472733 311.855438,146.237335 311.986298,145.001938 
	C311.993347,140.977966 312.000366,136.954010 312.292114,132.210831 
	C314.910919,119.129250 319.898285,112.808754 330.946442,115.059792 
	C330.957855,115.794785 330.969269,116.529778 330.982910,117.970367 
	C331.307953,119.456055 331.630768,120.236160 331.953613,121.016266 
	C331.964386,121.456436 331.975159,121.896622 331.997070,122.666794 
	C331.753174,132.591080 332.263519,142.282852 331.057251,151.756027 
	C329.395905,164.802979 325.008026,177.083221 316.128845,187.678482 
z"/>
<path fill="#E1D626" opacity="1.000000" stroke="none" 
	d="
M330.864960,114.789185 
	C319.898285,112.808754 314.910919,119.129250 312.295349,131.747894 
	C308.959564,120.042343 311.646759,112.643257 321.610229,110.475410 
	C324.047668,109.945091 326.975189,111.667397 329.850098,112.683365 
	C330.276398,113.514671 330.529938,114.016617 330.864960,114.789185 
z"/>
<path fill="#E5D819" opacity="1.000000" stroke="none" 
	d="
M332.216736,120.820679 
	C331.630768,120.236160 331.307953,119.456055 330.991943,118.337799 
	C331.492493,118.874786 331.986176,119.749947 332.216736,120.820679 
z"/>
<path fill="#E1D626" opacity="1.000000" stroke="none" 
	d="
M304.425659,144.925140 
	C303.203308,138.521530 302.358887,132.026291 301.520966,125.581299 
	C291.364471,126.497368 291.108643,126.795212 290.982422,136.011368 
	C290.962219,137.487335 290.721771,138.960281 290.288025,140.718262 
	C288.658203,134.209946 287.108734,127.241951 291.713318,121.178246 
	C293.030212,119.444046 296.159729,118.269272 298.401764,118.352615 
	C299.808289,118.404907 301.829803,121.086365 302.324738,122.924896 
	C303.863922,128.642563 304.932648,134.500259 305.888306,140.351883 
	C306.116547,141.749435 305.195831,143.334625 304.425659,144.925140 
z"/>
<path fill="#E1D626" opacity="1.000000" stroke="none" 
	d="
M303.387299,156.943390 
	C303.351715,154.607590 303.678802,152.204666 304.025696,149.392639 
	C307.571289,151.750198 306.282654,154.336533 303.387299,156.943390 
z"/>
<path fill="#E1D626" opacity="1.000000" stroke="none" 
	d="
M301.357666,166.953903 
	C301.494019,165.154053 301.971069,163.299850 302.721130,161.221817 
	C307.380127,164.023041 302.710968,165.059860 301.357666,166.953903 
z"/>
<path fill="#E1D626" opacity="1.000000" stroke="none" 
	d="
M311.730621,145.178833 
	C311.855438,146.237335 311.724609,147.472733 311.298706,148.854996 
	C311.160736,147.786484 311.317841,146.571091 311.730621,145.178833 
z"/>
<path fill="#E1D626" opacity="1.000000" stroke="none" 
	d="
M289.737122,143.207077 
	C290.173676,144.192139 290.348724,145.387924 290.261902,146.793854 
	C289.825226,145.808578 289.650421,144.613190 289.737122,143.207077 
z"/>
<path fill="#E1D626" opacity="1.000000" stroke="none" 
	d="
M307.650879,166.036896 
	C307.822510,166.856812 307.672577,167.724487 307.255890,168.795227 
	C307.102539,168.027069 307.215973,167.055862 307.650879,166.036896 
z"/>
<path fill="#E1D626" opacity="1.000000" stroke="none" 
	d="
M299.334045,170.963974 
	C299.456757,170.362305 299.900818,169.716949 300.663574,169.021942 
	C300.539978,169.621643 300.097687,170.270966 299.334045,170.963974 
z"/>
<path fill="#E1D626" opacity="1.000000" stroke="none" 
	d="
M309.673340,159.020386 
	C309.806824,159.545517 309.651093,160.105682 309.249207,160.833832 
	C309.130066,160.352997 309.257111,159.704193 309.673340,159.020386 
z"/>
<path fill="#E1D626" opacity="1.000000" stroke="none" 
	d="
M310.671875,153.020081 
	C310.805786,153.544586 310.650574,154.104385 310.250366,154.833313 
	C310.131165,154.353409 310.256958,153.704407 310.671875,153.020081 
z"/>
</svg>